<svg width="80" height="80" viewBox="0 0 80 80" fill="none" xmlns="http://www.w3.org/2000/svg">
<path d="M58.7104 17.92L44.9445 32.5131L37.782 25.9862L34.62 29.2506L45.1301 39.04L62.06 21.0025L58.7104 17.92ZM24.82 19.84C22.1255 19.84 19.92 22.0004 19.92 24.64V55.36C19.92 57.9995 22.1255 60.16 24.82 60.16H56.18C58.8745 60.16 61.08 57.9995 61.08 55.36V33.52V24.88L59.12 26.9631V33.52V55.36C59.12 56.9617 57.8151 58.24 56.18 58.24H24.82C23.1849 58.24 21.88 56.9617 21.88 55.36V24.64C21.88 23.0382 23.1849 21.76 24.82 21.76H46.2575C46.2595 21.76 46.2613 21.76 46.2632 21.76H52.4169L54.2296 19.84H46.2632H46.2575H24.82ZM30.344 37.12C26.6915 37.12 24.2841 39.05 24.2841 41.9444C24.2841 44.3127 25.71 45.8026 28.65 46.5044L30.79 47.0312C33.0175 47.5573 33.908 48.2594 33.908 49.5756C33.908 51.0665 32.3932 52.1181 30.344 52.1181C28.1164 52.1181 26.6035 51.1782 26.3359 49.6H23.84C24.0184 52.4944 26.5125 54.4 30.166 54.4C34.086 54.4 36.58 52.4705 36.58 49.3131C36.58 46.8574 35.1549 45.4532 31.77 44.6631L29.898 44.2244C27.7596 43.6983 26.87 43.0841 26.87 41.8562C26.87 40.3654 28.2068 39.4019 30.2559 39.4019C32.2159 39.4019 33.5514 40.3654 33.818 41.8562H36.312C36.2228 39.0492 33.7299 37.12 30.344 37.12ZM45.488 41.92C41.813 41.92 39.52 44.3767 39.52 48.1975C39.52 52.0183 41.813 54.4 45.488 54.4C48.428 54.4 50.5455 53.1241 51.0943 50.9237H48.6137C48.1531 51.8578 47.0557 52.3619 45.5857 52.3619C43.5571 52.3619 42.1848 50.799 42.0868 48.76V48.5875H51.28V47.95C51.28 44.2156 49.0748 41.92 45.488 41.92ZM45.488 43.8887C47.3108 43.8887 48.477 44.9536 48.673 46.72H42.215C42.4306 45.0208 43.675 43.8887 45.488 43.8887Z" fill="url(#paint0_linear_22_31)"/>
<defs>
<linearGradient id="paint0_linear_22_31" x1="40.99" y1="17.92" x2="40.99" y2="60.16" gradientUnits="userSpaceOnUse">
<stop stop-color="#FFBB5C"/>
<stop offset="1" stop-color="#FFDB70"/>
</linearGradient>
</defs>
</svg>
